# xmcd CD database file
#
# Track frame offsets:
#	150
#	14676
#	32600
#	46927
#	66530
#	78606
#	96716
#	109281
#	125001
#	137807
#	156534
#	172326
#
# Disc length: 2525 seconds
#
# Revision: 4
# Processed by: cddbd v1.5.2PL0 Copyright (c) Steve Scherf et al.
# Submitted via: CDex 1.72
#
DISCID=bd09db0c
DTITLE=Kane, Kieran,  and Kevin Welch (USA-04-You Can't Save Everybody-bls) - You Can't Save Everybody
DYEAR=2004
DGENRE=Blues
TTITLE0=You Can't Save Everybody
TTITLE1=Dark Eyed Gal
TTITLE2=Hillbilly Blue
TTITLE3=Jersey Devil
TTITLE4=Somewhere In The Middle
TTITLE5=Flycatcher Jack and the Whipporwill's Song
TTITLE6=Callin' Me
TTITLE7=Till I'm Too Old To Die Young
TTITLE8=Cecil's Lament
TTITLE9=Everybody's Working For The Man Again....
TTITLE10=Just Like That
TTITLE11=A Prayer Like Any Other (for Nikke)
EXTD=YEAR: 2004
EXTT0=
EXTT1=
EXTT2=
EXTT3=
EXTT4=
EXTT5=
EXTT6=
EXTT7=
EXTT8=
EXTT9=
EXTT10=
EXTT11=
PLAYORDER=
